<mxfile host="app.diagrams.net" agent="Mozilla/5.0 (Windows NT 10.0; Win64; x64) AppleWebKit/537.36 (KHTML, like Gecko) Chrome/139.0.0.0 Safari/537.36 Edg/139.0.0.0" version="28.1.1">
  <diagram name="Page-1" id="KPMFJw43iPptOMZjrqif">
    <mxGraphModel dx="1034" dy="666" grid="1" gridSize="10" guides="1" tooltips="1" connect="1" arrows="1" fold="1" page="1" pageScale="1" pageWidth="850" pageHeight="1100" math="0" shadow="0">
      <root>
        <mxCell id="0" />
        <mxCell id="1" parent="0" />
        <mxCell id="d4iT2gyoEarFkIEdlPE9-1" value="User" style="shape=umlLifeline;perimeter=lifelinePerimeter;whiteSpace=wrap;container=1;dropTarget=0;collapsible=0;recursiveResize=0;outlineConnect=0;portConstraint=eastwest;newEdgeStyle={&quot;edgeStyle&quot;:&quot;elbowEdgeStyle&quot;,&quot;elbow&quot;:&quot;vertical&quot;,&quot;curved&quot;:0,&quot;rounded&quot;:0};size=65;" vertex="1" parent="1">
          <mxGeometry x="20" y="20" width="150" height="973" as="geometry" />
        </mxCell>
        <mxCell id="d4iT2gyoEarFkIEdlPE9-2" value="Frontend (Next.js)" style="shape=umlLifeline;perimeter=lifelinePerimeter;whiteSpace=wrap;container=1;dropTarget=0;collapsible=0;recursiveResize=0;outlineConnect=0;portConstraint=eastwest;newEdgeStyle={&quot;edgeStyle&quot;:&quot;elbowEdgeStyle&quot;,&quot;elbow&quot;:&quot;vertical&quot;,&quot;curved&quot;:0,&quot;rounded&quot;:0};size=65;" vertex="1" parent="1">
          <mxGeometry x="220" y="20" width="150" height="973" as="geometry" />
        </mxCell>
        <mxCell id="d4iT2gyoEarFkIEdlPE9-3" value="Supabase API" style="shape=umlLifeline;perimeter=lifelinePerimeter;whiteSpace=wrap;container=1;dropTarget=0;collapsible=0;recursiveResize=0;outlineConnect=0;portConstraint=eastwest;newEdgeStyle={&quot;edgeStyle&quot;:&quot;elbowEdgeStyle&quot;,&quot;elbow&quot;:&quot;vertical&quot;,&quot;curved&quot;:0,&quot;rounded&quot;:0};size=65;" vertex="1" parent="1">
          <mxGeometry x="440" y="20" width="150" height="973" as="geometry" />
        </mxCell>
        <mxCell id="d4iT2gyoEarFkIEdlPE9-4" value="Supabase DB" style="shape=umlLifeline;perimeter=lifelinePerimeter;whiteSpace=wrap;container=1;dropTarget=0;collapsible=0;recursiveResize=0;outlineConnect=0;portConstraint=eastwest;newEdgeStyle={&quot;edgeStyle&quot;:&quot;elbowEdgeStyle&quot;,&quot;elbow&quot;:&quot;vertical&quot;,&quot;curved&quot;:0,&quot;rounded&quot;:0};size=65;" vertex="1" parent="1">
          <mxGeometry x="660" y="20" width="150" height="973" as="geometry" />
        </mxCell>
        <mxCell id="d4iT2gyoEarFkIEdlPE9-5" value="PostHog" style="shape=umlLifeline;perimeter=lifelinePerimeter;whiteSpace=wrap;container=1;dropTarget=0;collapsible=0;recursiveResize=0;outlineConnect=0;portConstraint=eastwest;newEdgeStyle={&quot;edgeStyle&quot;:&quot;elbowEdgeStyle&quot;,&quot;elbow&quot;:&quot;vertical&quot;,&quot;curved&quot;:0,&quot;rounded&quot;:0};size=65;" vertex="1" parent="1">
          <mxGeometry x="860" y="20" width="150" height="973" as="geometry" />
        </mxCell>
        <mxCell id="d4iT2gyoEarFkIEdlPE9-6" value="Email Service" style="shape=umlLifeline;perimeter=lifelinePerimeter;whiteSpace=wrap;container=1;dropTarget=0;collapsible=0;recursiveResize=0;outlineConnect=0;portConstraint=eastwest;newEdgeStyle={&quot;edgeStyle&quot;:&quot;elbowEdgeStyle&quot;,&quot;elbow&quot;:&quot;vertical&quot;,&quot;curved&quot;:0,&quot;rounded&quot;:0};size=65;" vertex="1" parent="1">
          <mxGeometry x="1060" y="20" width="150" height="973" as="geometry" />
        </mxCell>
        <mxCell id="d4iT2gyoEarFkIEdlPE9-7" value="alt" style="shape=umlFrame;dashed=1;pointerEvents=0;dropTarget=0;strokeColor=#B3B3B3;height=20;width=30" vertex="1" parent="1">
          <mxGeometry x="284" y="581" width="862" height="209" as="geometry" />
        </mxCell>
        <mxCell id="d4iT2gyoEarFkIEdlPE9-8" value="[user leaves email]" style="text;strokeColor=none;fillColor=none;align=center;verticalAlign=middle;whiteSpace=wrap;" vertex="1" parent="d4iT2gyoEarFkIEdlPE9-7">
          <mxGeometry x="30" width="832" height="20" as="geometry" />
        </mxCell>
        <mxCell id="d4iT2gyoEarFkIEdlPE9-9" value="start quiz" style="verticalAlign=bottom;edgeStyle=elbowEdgeStyle;elbow=vertical;curved=0;rounded=0;endArrow=block;" edge="1" parent="1" source="d4iT2gyoEarFkIEdlPE9-1" target="d4iT2gyoEarFkIEdlPE9-2">
          <mxGeometry relative="1" as="geometry">
            <Array as="points">
              <mxPoint x="204" y="129" />
            </Array>
          </mxGeometry>
        </mxCell>
        <mxCell id="d4iT2gyoEarFkIEdlPE9-10" value="GET /quiz (questions)" style="verticalAlign=bottom;edgeStyle=elbowEdgeStyle;elbow=vertical;curved=0;rounded=0;endArrow=block;" edge="1" parent="1" source="d4iT2gyoEarFkIEdlPE9-2" target="d4iT2gyoEarFkIEdlPE9-3">
          <mxGeometry relative="1" as="geometry">
            <Array as="points">
              <mxPoint x="414" y="183" />
            </Array>
          </mxGeometry>
        </mxCell>
        <mxCell id="d4iT2gyoEarFkIEdlPE9-11" value="fetch quiz structure" style="verticalAlign=bottom;edgeStyle=elbowEdgeStyle;elbow=vertical;curved=0;rounded=0;endArrow=block;" edge="1" parent="1" source="d4iT2gyoEarFkIEdlPE9-3" target="d4iT2gyoEarFkIEdlPE9-4">
          <mxGeometry relative="1" as="geometry">
            <Array as="points">
              <mxPoint x="634" y="237" />
            </Array>
          </mxGeometry>
        </mxCell>
        <mxCell id="d4iT2gyoEarFkIEdlPE9-12" value="quiz JSON" style="verticalAlign=bottom;edgeStyle=elbowEdgeStyle;elbow=vertical;curved=0;rounded=0;dashed=1;dashPattern=2 3;endArrow=block;" edge="1" parent="1" source="d4iT2gyoEarFkIEdlPE9-4" target="d4iT2gyoEarFkIEdlPE9-3">
          <mxGeometry relative="1" as="geometry">
            <Array as="points">
              <mxPoint x="637" y="291" />
            </Array>
          </mxGeometry>
        </mxCell>
        <mxCell id="d4iT2gyoEarFkIEdlPE9-13" value="return quiz JSON" style="verticalAlign=bottom;edgeStyle=elbowEdgeStyle;elbow=vertical;curved=0;rounded=0;dashed=1;dashPattern=2 3;endArrow=block;" edge="1" parent="1" source="d4iT2gyoEarFkIEdlPE9-3" target="d4iT2gyoEarFkIEdlPE9-2">
          <mxGeometry relative="1" as="geometry">
            <Array as="points">
              <mxPoint x="417" y="345" />
            </Array>
          </mxGeometry>
        </mxCell>
        <mxCell id="d4iT2gyoEarFkIEdlPE9-14" value="submits answers" style="verticalAlign=bottom;edgeStyle=elbowEdgeStyle;elbow=vertical;curved=0;rounded=0;endArrow=block;" edge="1" parent="1" source="d4iT2gyoEarFkIEdlPE9-1" target="d4iT2gyoEarFkIEdlPE9-2">
          <mxGeometry relative="1" as="geometry">
            <Array as="points">
              <mxPoint x="204" y="399" />
            </Array>
          </mxGeometry>
        </mxCell>
        <mxCell id="d4iT2gyoEarFkIEdlPE9-15" value="POST /quiz (answers)" style="verticalAlign=bottom;edgeStyle=elbowEdgeStyle;elbow=vertical;curved=0;rounded=0;endArrow=block;" edge="1" parent="1" source="d4iT2gyoEarFkIEdlPE9-2" target="d4iT2gyoEarFkIEdlPE9-3">
          <mxGeometry relative="1" as="geometry">
            <Array as="points">
              <mxPoint x="414" y="453" />
            </Array>
          </mxGeometry>
        </mxCell>
        <mxCell id="d4iT2gyoEarFkIEdlPE9-16" value="insert QuizResponses" style="verticalAlign=bottom;edgeStyle=elbowEdgeStyle;elbow=vertical;curved=0;rounded=0;endArrow=block;" edge="1" parent="1" source="d4iT2gyoEarFkIEdlPE9-3" target="d4iT2gyoEarFkIEdlPE9-4">
          <mxGeometry relative="1" as="geometry">
            <Array as="points">
              <mxPoint x="634" y="507" />
            </Array>
          </mxGeometry>
        </mxCell>
        <mxCell id="d4iT2gyoEarFkIEdlPE9-17" value="track event &quot;quiz_completed&quot;" style="verticalAlign=bottom;edgeStyle=elbowEdgeStyle;elbow=vertical;curved=0;rounded=0;endArrow=block;" edge="1" parent="1" source="d4iT2gyoEarFkIEdlPE9-3" target="d4iT2gyoEarFkIEdlPE9-5">
          <mxGeometry relative="1" as="geometry">
            <Array as="points">
              <mxPoint x="734" y="561" />
            </Array>
          </mxGeometry>
        </mxCell>
        <mxCell id="d4iT2gyoEarFkIEdlPE9-18" value="POST /lead (email)" style="verticalAlign=bottom;edgeStyle=elbowEdgeStyle;elbow=vertical;curved=0;rounded=0;endArrow=block;" edge="1" parent="1" source="d4iT2gyoEarFkIEdlPE9-2" target="d4iT2gyoEarFkIEdlPE9-3">
          <mxGeometry relative="1" as="geometry">
            <Array as="points">
              <mxPoint x="414" y="662" />
            </Array>
          </mxGeometry>
        </mxCell>
        <mxCell id="d4iT2gyoEarFkIEdlPE9-19" value="insert Leads" style="verticalAlign=bottom;edgeStyle=elbowEdgeStyle;elbow=vertical;curved=0;rounded=0;endArrow=block;" edge="1" parent="1" source="d4iT2gyoEarFkIEdlPE9-3" target="d4iT2gyoEarFkIEdlPE9-4">
          <mxGeometry relative="1" as="geometry">
            <Array as="points">
              <mxPoint x="634" y="716" />
            </Array>
          </mxGeometry>
        </mxCell>
        <mxCell id="d4iT2gyoEarFkIEdlPE9-20" value="add to mailing list" style="verticalAlign=bottom;edgeStyle=elbowEdgeStyle;elbow=vertical;curved=0;rounded=0;endArrow=block;" edge="1" parent="1" source="d4iT2gyoEarFkIEdlPE9-3" target="d4iT2gyoEarFkIEdlPE9-6">
          <mxGeometry relative="1" as="geometry">
            <Array as="points">
              <mxPoint x="834" y="770" />
            </Array>
          </mxGeometry>
        </mxCell>
        <mxCell id="d4iT2gyoEarFkIEdlPE9-21" value="confirmation + outro" style="verticalAlign=bottom;edgeStyle=elbowEdgeStyle;elbow=vertical;curved=0;rounded=0;dashed=1;dashPattern=2 3;endArrow=block;" edge="1" parent="1" source="d4iT2gyoEarFkIEdlPE9-3" target="d4iT2gyoEarFkIEdlPE9-2">
          <mxGeometry relative="1" as="geometry">
            <Array as="points">
              <mxPoint x="417" y="834" />
            </Array>
          </mxGeometry>
        </mxCell>
        <mxCell id="d4iT2gyoEarFkIEdlPE9-22" value="show outro + CTA" style="verticalAlign=bottom;edgeStyle=elbowEdgeStyle;elbow=vertical;curved=0;rounded=0;dashed=1;dashPattern=2 3;endArrow=block;" edge="1" parent="1" source="d4iT2gyoEarFkIEdlPE9-2" target="d4iT2gyoEarFkIEdlPE9-1">
          <mxGeometry relative="1" as="geometry">
            <Array as="points">
              <mxPoint x="207" y="888" />
            </Array>
          </mxGeometry>
        </mxCell>
      </root>
    </mxGraphModel>
  </diagram>
</mxfile>
